<svg id="Layer_1" enable-background="new 0 0 256 256" height="512" viewBox="0 0 256 256" width="512" xmlns="http://www.w3.org/2000/svg"><path d="m166.957 109.716 17.911 11.051v-13.508c0-2.895-2.347-5.242-5.242-5.242h-7.426c-2.895 0-5.242 2.347-5.242 5.242v2.457z" fill="#a4c9ff"/><path d="m201.905 131.279 17.911 11.051v-17.598c0-2.895-2.347-5.242-5.242-5.242h-7.426c-2.895 0-5.242 2.347-5.242 5.242v6.547z" fill="#a4c9ff"/><path d="m54.095 131.279v-6.546c0-2.895-2.347-5.242-5.242-5.242h-7.426c-2.895 0-5.242 2.347-5.242 5.242v17.598z" fill="#a4c9ff"/><path d="m71.132 120.767 17.911-11.051v-2.457c0-2.895-2.347-5.242-5.242-5.242h-7.426c-2.895 0-5.242 2.347-5.242 5.242v13.508z" fill="#a4c9ff"/><path d="m134.081 9.041c-1.159-2.26-3.511-3.686-6.081-3.686-2.57 0-4.922 1.425-6.081 3.686-10.041 19.577-15.055 41.281-14.605 63.212l2.666 129.663c0 14.248 5.192 27.877 14.362 37.49 2.037 2.136 5.279 2.136 7.316 0 9.17-9.614 14.362-23.242 14.362-37.49l2.666-129.663c.45-21.931-4.564-43.635-14.605-63.212z" fill="#e0ebfc"/><path d="m134.704 32.577c-1.851-1.555-4.235-2.412-6.704-2.412s-4.853.858-6.704 2.412c-4.122 3.461-6.483 8.441-6.483 13.672v3.966c0 .479.388.867.867.867.339 0 .639-.2.782-.507 1.106-2.375 2.741-4.526 4.834-6.284 1.851-1.555 4.235-2.412 6.704-2.412s4.853.858 6.704 2.412c2.093 1.758 3.728 3.909 4.834 6.284.143.307.444.507.782.507.479 0 .867-.388.867-.867v-3.965c0-5.232-2.361-10.211-6.483-13.673z" fill="#4671c6"/><path d="m128 243.008c-1.926 0-3.739-.789-5.105-2.221-9.479-9.938-14.915-24.104-14.915-38.871l-2.666-129.622c-.456-22.179 4.67-44.367 14.824-64.166 1.511-2.943 4.523-4.772 7.861-4.772s6.35 1.829 7.86 4.772c10.154 19.799 15.28 41.987 14.824 64.166l-2.666 129.663c0 14.726-5.436 28.893-14.914 38.83-1.364 1.432-3.177 2.221-5.103 2.221zm0-235.653c-1.831 0-3.479.996-4.302 2.599-9.853 19.211-14.827 40.739-14.384 62.258l2.666 129.663c0 13.789 5.034 26.951 13.81 36.15 1.208 1.268 3.213 1.268 4.421 0 8.776-9.199 13.809-22.361 13.809-36.109l2.667-129.704c.442-21.519-4.532-43.047-14.385-62.258-.823-1.602-2.471-2.599-4.302-2.599z" fill="#3762cc"/><path d="m184.868 122.767c-.365 0-.729-.1-1.05-.298l-17.911-11.051c-.59-.364-.95-1.009-.95-1.702v-2.457c0-3.993 3.249-7.242 7.242-7.242h7.426c3.993 0 7.242 3.249 7.242 7.242v13.508c0 .725-.393 1.394-1.025 1.746-.303.17-.639.254-.974.254zm-15.911-14.167 13.911 8.583v-9.924c0-1.788-1.455-3.242-3.242-3.242h-7.426c-1.788 0-3.242 1.454-3.242 3.242v1.341z" fill="#3762cc"/><path d="m219.816 144.331c-.365 0-.729-.1-1.05-.298l-17.911-11.052c-.59-.364-.95-1.009-.95-1.702v-6.547c0-3.993 3.249-7.242 7.242-7.242h7.426c3.994 0 7.243 3.249 7.243 7.242v17.599c0 .725-.393 1.394-1.025 1.746-.304.17-.64.254-.975.254zm-15.911-14.168 13.911 8.584v-14.015c0-1.788-1.455-3.242-3.243-3.242h-7.426c-1.788 0-3.242 1.454-3.242 3.242z" fill="#3762cc"/><path d="m36.184 144.331c-.335 0-.671-.084-.975-.254-.633-.353-1.025-1.021-1.025-1.746v-17.599c0-3.993 3.249-7.242 7.243-7.242h7.426c3.993 0 7.242 3.249 7.242 7.242v6.547c0 .693-.359 1.338-.95 1.702l-17.911 11.052c-.321.198-.685.298-1.05.298zm5.243-22.841c-1.788 0-3.243 1.454-3.243 3.242v14.015l13.911-8.584v-5.431c0-1.788-1.455-3.242-3.242-3.242zm12.668 9.789h.01z" fill="#3762cc"/><path d="m71.132 122.767c-.335 0-.671-.084-.975-.254-.633-.353-1.025-1.021-1.025-1.746v-13.508c0-3.993 3.249-7.242 7.242-7.242h7.426c3.993 0 7.242 3.249 7.242 7.242v2.457c0 .693-.359 1.338-.95 1.702l-17.911 11.051c-.32.198-.684.298-1.049.298zm5.243-18.75c-1.788 0-3.242 1.454-3.242 3.242v9.924l13.911-8.583v-1.341c0-1.788-1.455-3.242-3.242-3.242z" fill="#3762cc"/><path d="m234.192 151.201-86.038-53.088-1.111 54.057 83.125 20.782c3.309.827 6.514-1.675 6.514-5.086v-12.203c-.001-1.818-.943-3.507-2.49-4.462z" fill="#e0ebfc"/><path d="m231.456 175.111c-.589 0-1.184-.072-1.772-.22l-83.125-20.781c-.905-.227-1.534-1.049-1.515-1.981l1.111-54.057c.015-.718.413-1.372 1.043-1.716.63-.342 1.396-.322 2.007.055l86.038 53.088c2.153 1.329 3.439 3.633 3.439 6.163v12.204c0 2.245-1.015 4.326-2.785 5.708-1.293 1.009-2.848 1.537-4.441 1.537zm-82.381-24.495 81.578 20.395c.976.244 1.99.029 2.782-.59.792-.618 1.247-1.55 1.247-2.555v-12.203c0-1.133-.576-2.165-1.54-2.76l-83.06-51.251z" fill="#3762cc"/><path d="m107.846 98.113-86.038 53.088c-1.547.955-2.489 2.643-2.49 4.461v12.203c0 3.41 3.205 5.913 6.514 5.086l83.125-20.782z" fill="#e0ebfc"/><path d="m24.544 175.111c-1.593 0-3.149-.528-4.44-1.537-1.77-1.382-2.785-3.463-2.785-5.708v-12.203c0-2.531 1.287-4.835 3.439-6.164l86.038-53.088c.611-.377 1.376-.396 2.007-.055.63.344 1.028.998 1.043 1.716l1.111 54.057c.019.933-.609 1.755-1.515 1.981l-83.125 20.781c-.588.147-1.183.22-1.773.22zm81.374-73.459-83.06 51.251c-.964.595-1.54 1.627-1.54 2.761v12.202c0 1.005.455 1.937 1.247 2.555.792.619 1.805.834 2.782.59l81.578-20.395z" fill="#3762cc"/><path d="m128 192.864c-1.437 0-2.601 1.165-2.601 2.601v53.693c0 .821.665 1.486 1.486 1.486h1.115 1.115c.821 0 1.486-.665 1.486-1.486v-53.693c0-1.436-1.164-2.601-2.601-2.601z" fill="#6bdddd"/><path d="m110.001 202.842h-1.137l-17.792 6.857c-1.593.614-2.608 1.913-2.608 3.339v12.145c0 2.096 2.153 3.774 4.746 3.697l23.146-.684c-3.99-7.595-6.212-16.332-6.355-25.354z" fill="#a4c9ff"/><path d="m164.969 209.699-17.792-6.857h-1.178c-.143 9.022-2.364 17.758-6.355 25.354l23.187.685c2.593.077 4.746-1.601 4.746-3.697v-12.145c0-1.426-1.015-2.726-2.608-3.34z" fill="#a4c9ff"/><path d="m93.042 230.885c-1.883 0-3.663-.687-4.913-1.901-1.073-1.042-1.664-2.392-1.664-3.8v-12.145c0-2.252 1.526-4.295 3.889-5.206l17.792-6.857c.229-.089.473-.134.719-.134h1.137c1.092 0 1.982.876 2 1.969.137 8.631 2.255 17.088 6.126 24.456.321.611.304 1.344-.043 1.939-.348.596-.979.97-1.668.99l-23.146.685c-.077.002-.153.004-.229.004zm15.046-25.601-16.296 6.281c-.806.311-1.327.89-1.327 1.474v12.145c0 .407.245.73.451.931.522.508 1.364.792 2.237.769l20.045-.593c-2.955-6.508-4.7-13.675-5.11-21.007z" fill="#3762cc"/><path d="m163 230.885c-.076 0-.152-.002-.228-.004l-23.188-.686c-.689-.021-1.32-.395-1.668-.99-.348-.596-.364-1.328-.043-1.939 3.871-7.367 5.989-15.824 6.126-24.455.017-1.093.907-1.969 2-1.969h1.178c.246 0 .49.045.719.134l17.792 6.857c2.362.911 3.889 2.954 3.889 5.206v12.145c0 1.408-.591 2.758-1.664 3.8-1.251 1.214-3.031 1.901-4.913 1.901zm-20.198-4.596 20.087.594c.874.019 1.714-.261 2.236-.769.206-.2.451-.523.451-.931v-12.145c0-.584-.521-1.163-1.327-1.474l-16.337-6.297c-.408 7.339-2.152 14.511-5.11 21.022z" fill="#3762cc"/><path d="m129.115 252.645h-2.229c-1.922 0-3.486-1.563-3.486-3.486v-53.693c0-2.537 2.064-4.601 4.601-4.601s4.601 2.063 4.601 4.601v53.693c-.001 1.922-1.565 3.486-3.487 3.486zm-1.716-4h1.202v-53.18c0-.331-.27-.601-.601-.601s-.601.27-.601.601z" fill="#3762cc"/><g fill="#a4c9ff"><path d="m176 211.814c-1.657 0-3-1.343-3-3v-41.285c0-1.657 1.343-3 3-3s3 1.343 3 3v41.285c0 1.657-1.343 3-3 3z"/><path d="m196 232.986c-1.657 0-3-1.343-3-3v-41.285c0-1.657 1.343-3 3-3s3 1.343 3 3v41.285c0 1.657-1.343 3-3 3z"/><path d="m216 250.158c-1.657 0-3-1.343-3-3v-41.285c0-1.657 1.343-3 3-3s3 1.343 3 3v41.285c0 1.657-1.343 3-3 3z"/><path d="m80 211.285c-1.657 0-3-1.343-3-3v-41.285c0-1.657 1.343-3 3-3s3 1.343 3 3v41.285c0 1.657-1.343 3-3 3z"/><path d="m60 232.457c-1.657 0-3-1.343-3-3v-41.285c0-1.657 1.343-3 3-3s3 1.343 3 3v41.285c0 1.657-1.343 3-3 3z"/><path d="m40 249.629c-1.657 0-3-1.343-3-3v-41.285c0-1.657 1.343-3 3-3s3 1.343 3 3v41.285c0 1.657-1.343 3-3 3z"/></g></svg>